<svg width="360" height="360" xmlns="http://www.w3.org/2000/svg">
    <defs>
        <linearGradient id="grad1" x1="0%" y1="0%" x2="100%" y2="0%">
            <stop offset="0%" style="stop-color:#ff3434;stop-opacity:1" />
            <stop offset="100%" style="stop-color:#ff6767;stop-opacity:1" />
        </linearGradient>
    </defs>
    <g>
        <title>Layer 1</title>
        <!-- <path fill="#eee" stroke="#000" stroke-width="0" d="M0,0 l360,0 l0,360 l-360,0 Z"/> -->

        <path fill="#1e2e4a" stroke="#000" stroke-width="0" d="M0,231 l0,-102 l36,-36 l102,0 Z" />

        <path fill="url(#grad1)" stroke="#000" stroke-width="0" d="M51,36 l72,0 l0,288 l-72,0 Z"/>
        
        <path fill="#3c5c94" stroke="#000" stroke-width="0" d="M0,231 l0,-102 l138,138-102,0 Z" />

        <path fill="#5a8ade" stroke="#000" stroke-width="0" d="M0,231 m0,-102 m138,138 l-102,0 l240,-240 l62,0 Z" />

        <path fill="#679eff" stroke="#000" stroke-width="0" d="M0,231 m0,-102 m36,-36 m102,0 l-51,51 l215,215 l57,0 Z" />
         
        <path fill="url(#grad1)" stroke="#000" stroke-width="0" d="M51,36 l72,0 l0,144 l-72,0 Z"/>

        <circle fill="url(#grad1)" cx="87" cy="36" r="36"/>

        <circle fill="url(#grad1)" cx="87" cy="324" r="36"/>

    </g>
</svg>